<?xml version="1.0" encoding="UTF-8" standalone="no"?>
<!-- Created with Inkscape (http://www.inkscape.org/) -->

<svg
   xmlns:dc="http://purl.org/dc/elements/1.1/"
   xmlns:cc="http://creativecommons.org/ns#"
   xmlns:rdf="http://www.w3.org/1999/02/22-rdf-syntax-ns#"
   xmlns:svg="http://www.w3.org/2000/svg"
   xmlns="http://www.w3.org/2000/svg"
   xmlns:sodipodi="http://sodipodi.sourceforge.net/DTD/sodipodi-0.dtd"
   xmlns:inkscape="http://www.inkscape.org/namespaces/inkscape"
   version="1.1"
   id="svg2"
   xml:space="preserve"
   width="1073.4171"
   height="269.28452"
   viewBox="0 0 1073.4171 269.28452"
   sodipodi:docname="clh-logo-white.svg"
   inkscape:version="0.92.4 (unknown)"><metadata
     id="metadata8"><rdf:RDF><cc:Work
         rdf:about=""><dc:format>image/svg+xml</dc:format><dc:type
           rdf:resource="http://purl.org/dc/dcmitype/StillImage" /><dc:title></dc:title></cc:Work></rdf:RDF></metadata><defs
     id="defs6"><clipPath
       clipPathUnits="userSpaceOnUse"
       id="clipPath20"><path
         d="M 0,1080 H 1920 V 0 H 0 Z"
         id="path18"
         inkscape:connector-curvature="0" /></clipPath></defs><sodipodi:namedview
     pagecolor="#2e2e2e"
     bordercolor="#666666"
     borderopacity="1"
     objecttolerance="10"
     gridtolerance="10"
     guidetolerance="10"
     inkscape:pageopacity="0"
     inkscape:pageshadow="2"
     inkscape:window-width="1920"
     inkscape:window-height="1080"
     id="namedview4"
     showgrid="false"
     fit-margin-top="0"
     fit-margin-left="0"
     fit-margin-right="0"
     fit-margin-bottom="0"
     inkscape:zoom="0.16388889"
     inkscape:cx="-483.58494"
     inkscape:cy="459.52878"
     inkscape:window-x="0"
     inkscape:window-y="0"
     inkscape:window-maximized="1"
     inkscape:current-layer="g10" /><g
     id="g10"
     inkscape:groupmode="layer"
     inkscape:label="CommandLineHeroes_Logo_Reverse"
     transform="matrix(1.3333333,0,0,-1.3333333,-743.41998,852.73438)"><path
       d="m 1127.677,577.935 h 51.061 v -9.514 h -51.061 z"
       style="fill:#ffffff;fill-opacity:1;fill-rule:nonzero;stroke:none"
       id="path12"
       inkscape:connector-curvature="0" /><g
       id="g14"><g
         id="g16"
         clip-path="url(#clipPath20)"><g
           id="g22"
           transform="translate(800.1528,611.1309)"><path
             d="m 0,0 c 0,-6.183 0.962,-10.956 2.887,-14.309 1.925,-3.357 4.799,-5.031 8.622,-5.031 4.452,0 7.752,3.353 9.897,10.063 l 11.259,-2.144 C 29.008,-23.08 21.916,-28.907 11.386,-28.907 c -7.73,0 -13.618,2.452 -17.675,7.361 -4.056,4.908 -6.082,12.089 -6.082,21.546 0,18.945 7.809,28.419 23.423,28.419 5.115,0 9.4,-1.349 12.85,-4.043 3.45,-2.693 5.985,-6.697 7.607,-12.001 L 20.294,9.65 c -0.8,2.918 -1.995,5.177 -3.59,6.786 -1.596,1.608 -3.424,2.412 -5.485,2.412 C 3.74,18.848 0,12.568 0,0"
             style="fill:#ffffff;fill-opacity:1;fill-rule:nonzero;stroke:none"
             id="path24"
             inkscape:connector-curvature="0" /></g><g
           id="g26"
           transform="translate(869.2236,611.0518)"><path
             d="m 0,0 c 0,12.617 -3.34,18.927 -10.02,18.927 -6.71,0 -10.063,-6.31 -10.063,-18.927 0,-6.328 0.844,-11.118 2.536,-14.375 1.692,-3.256 4.201,-4.886 7.527,-4.886 3.327,0 5.828,1.63 7.506,4.886 C -0.839,-11.118 0,-6.328 0,0 m 12.331,0 c 0,-9.488 -1.925,-16.664 -5.774,-21.529 -3.85,-4.869 -9.374,-7.299 -16.577,-7.299 -7.207,0 -12.739,2.43 -16.602,7.299 -3.863,4.865 -5.792,12.041 -5.792,21.529 0,9.483 1.929,16.607 5.792,21.362 3.863,4.755 9.395,7.137 16.602,7.137 7.203,0 12.727,-2.382 16.577,-7.137 C 10.406,16.607 12.331,9.483 12.331,0"
             style="fill:#ffffff;fill-opacity:1;fill-rule:nonzero;stroke:none"
             id="path28"
             inkscape:connector-curvature="0" /></g><g
           id="g30"
           transform="translate(921.1479,583.0454)"><path
             d="M 0,0 V 35.798 C 0,38.685 0.22,42.825 0.659,48.212 -0.967,40.241 -1.995,35.552 -2.435,34.15 L -7.55,14.849 h -8.991 l -5.194,19.301 c -0.8,2.971 -1.846,7.655 -3.138,14.062 l 0.29,-4.122 c 0.193,-2.887 0.29,-5.651 0.29,-8.292 V 0 h -9.075 v 55.639 h 14.313 l 5.568,-20.584 c 0.409,-1.292 0.932,-4.465 1.565,-9.523 0.549,4.259 1.098,7.423 1.652,9.484 l 5.607,20.623 H 9.154 V 0 Z"
             style="fill:#ffffff;fill-opacity:1;fill-rule:nonzero;stroke:none"
             id="path32"
             inkscape:connector-curvature="0" /></g><g
           id="g34"
           transform="translate(971.835,583.0454)"><path
             d="M 0,0 V 35.798 C 0,38.685 0.22,42.825 0.659,48.212 -0.967,40.241 -1.995,35.552 -2.435,34.15 L -7.55,14.849 h -8.992 l -5.194,19.301 c -0.8,2.971 -1.846,7.655 -3.138,14.062 l 0.291,-4.122 c 0.193,-2.887 0.29,-5.651 0.29,-8.292 V 0 h -9.075 v 55.639 h 14.313 l 5.568,-20.584 c 0.408,-1.292 0.931,-4.465 1.564,-9.523 0.549,4.259 1.099,7.423 1.652,9.484 l 5.608,20.623 H 9.153 V 0 Z"
             style="fill:#ffffff;fill-opacity:1;fill-rule:nonzero;stroke:none"
             id="path36"
             inkscape:connector-curvature="0" /></g><g
           id="g38"
           transform="translate(1010.4365,631.1743)"><path
             d="m 0,0 c -0.22,-1.151 -0.629,-2.878 -1.218,-5.172 -0.593,-2.299 -2.47,-9.027 -5.629,-20.189 H 6.847 C 3.63,-14.036 1.735,-7.255 1.173,-5.027 0.61,-2.804 0.22,-1.125 0,0 M 25.321,-48.129 H 13.196 l -3.797,13.61 H -9.404 l -3.793,-13.61 H -25.365 L -7.093,7.51 H 7.093 Z"
             style="fill:#ffffff;fill-opacity:1;fill-rule:nonzero;stroke:none"
             id="path40"
             inkscape:connector-curvature="0" /></g><g
           id="g42"
           transform="translate(1065.3994,583.0454)"><path
             d="m 0,0 -15.838,41.656 c 0.769,-6.93 1.155,-11.795 1.155,-14.599 V 0 h -10.599 v 55.639 h 13.9 L 4.825,12.867 C 4.056,19.332 3.669,24.346 3.669,27.923 v 27.716 h 10.6 V 0 Z"
             style="fill:#ffffff;fill-opacity:1;fill-rule:nonzero;stroke:none"
             id="path44"
             inkscape:connector-curvature="0" /></g><g
           id="g46"
           transform="translate(1117.75,611.2979)"><path
             d="m 0,0 c 0,6.24 -1.178,10.797 -3.524,13.671 -2.352,2.874 -6.14,4.311 -11.365,4.311 h -2.513 v -36.83 h 4.205 C -4.399,-18.848 0,-12.564 0,0 m 12.247,0 c 0,-9.075 -2.118,-16.049 -6.35,-20.931 -4.236,-4.882 -10.27,-7.321 -18.105,-7.321 h -17.363 v 55.639 h 14.888 c 9.018,0 15.759,-2.263 20.229,-6.785 C 10.015,16.075 12.247,9.211 12.247,0"
             style="fill:#ffffff;fill-opacity:1;fill-rule:nonzero;stroke:none"
             id="path48"
             inkscape:connector-curvature="0" /></g><g
           id="g50"
           transform="translate(1181.708,583.0454)"><path
             d="M 0,0 V 55.639 H 12.169 V 9.404 H 37.573 V 0 Z"
             style="fill:#ffffff;fill-opacity:1;fill-rule:nonzero;stroke:none"
             id="path52"
             inkscape:connector-curvature="0" /></g><g
           id="g54"
           transform="translate(1226.7871,638.6846)"><path
             d="M 0,0 H 37.78 V -9.404 H 24.952 V -46.235 H 37.78 v -9.404 H 0 v 9.404 H 12.828 V -9.404 H 0 Z"
             style="fill:#ffffff;fill-opacity:1;fill-rule:nonzero;stroke:none"
             id="path56"
             inkscape:connector-curvature="0" /></g><g
           id="g58"
           transform="translate(1296.7832,583.0454)"><path
             d="m 0,0 -15.838,41.656 c 0.77,-6.93 1.156,-11.795 1.156,-14.599 V 0 h -10.599 v 55.639 h 13.899 L 4.825,12.867 C 4.057,19.332 3.67,24.346 3.67,27.923 v 27.716 h 10.6 V 0 Z"
             style="fill:#ffffff;fill-opacity:1;fill-rule:nonzero;stroke:none"
             id="path60"
             inkscape:connector-curvature="0" /></g><g
           id="g62"
           transform="translate(1318.8926,583.0454)"><path
             d="M 0,0 V 55.639 H 39.92 V 46.235 H 12.164 V 32.871 H 37.406 V 23.467 H 12.164 V 9.404 H 41.611 V 0 Z"
             style="fill:#ffffff;fill-opacity:1;fill-rule:nonzero;stroke:none"
             id="path64"
             inkscape:connector-curvature="0" /></g><g
           id="g66"
           transform="translate(843.377,439.2812)"><path
             d="M 0,0 V 48.5 H -30.665 V 0 h -24.93 v 113.98 h 24.93 V 69.117 H 0 V 113.98 H 24.93 V 0 Z"
             style="fill:#ffffff;fill-opacity:1;fill-rule:nonzero;stroke:none"
             id="path68"
             inkscape:connector-curvature="0" /></g><g
           id="g70"
           transform="translate(884.6206,439.2812)"><path
             d="M 0,0 V 113.98 H 81.785 V 94.713 H 24.921 V 67.344 H 76.635 V 48.076 H 24.921 V 19.267 h 60.33 V 0 Z"
             style="fill:#ffffff;fill-opacity:1;fill-rule:nonzero;stroke:none"
             id="path72"
             inkscape:connector-curvature="0" /></g><g
           id="g74"
           transform="translate(1046.0928,518.4463)"><path
             d="m 0,0 c 0,5.294 -1.746,9.201 -5.239,11.704 -3.493,2.512 -9.067,3.763 -16.729,3.763 h -14.198 v -31.772 h 14.874 C -7.094,-16.305 0,-10.867 0,0 m 2.962,-79.165 -24.506,43.512 h -14.622 v -43.512 h -24.92 v 113.98 h 41.738 c 14.873,0 25.993,-2.899 33.375,-8.706 7.383,-5.798 11.065,-14.162 11.065,-25.092 0,-7.716 -2.079,-14.279 -6.248,-19.69 -4.168,-5.402 -9.94,-9.21 -17.323,-11.407 l 29.486,-49.085 z"
             style="fill:#ffffff;fill-opacity:1;fill-rule:nonzero;stroke:none"
             id="path76"
             inkscape:connector-curvature="0" /></g><g
           id="g78"
           transform="translate(1142.8418,496.6494)"><path
             d="m 0,0 c 0,25.857 -6.843,38.785 -20.527,38.785 -13.748,0 -20.618,-12.928 -20.618,-38.785 0,-12.956 1.729,-22.77 5.195,-29.45 3.467,-6.671 8.607,-10.011 15.423,-10.011 6.815,0 11.937,3.34 15.377,10.011 C -1.72,-22.77 0,-12.956 0,0 m 25.263,0 c 0,-19.429 -3.944,-34.132 -11.83,-44.106 -7.887,-9.967 -19.204,-14.956 -33.96,-14.956 -14.766,0 -26.101,4.989 -34.015,14.956 -7.913,9.974 -11.866,24.677 -11.866,44.106 0,19.437 3.953,34.022 11.866,43.773 7.914,9.742 19.249,14.613 34.015,14.613 14.756,0 26.073,-4.871 33.96,-14.613 C 21.319,34.022 25.263,19.437 25.263,0"
             style="fill:#ffffff;fill-opacity:1;fill-rule:nonzero;stroke:none"
             id="path80"
             inkscape:connector-curvature="0" /></g><g
           id="g82"
           transform="translate(1178.8457,439.2812)"><path
             d="M 0,0 V 113.98 H 81.784 V 94.713 H 24.921 V 67.344 H 76.635 V 48.076 H 24.921 V 19.267 h 60.33 V 0 Z"
             style="fill:#ffffff;fill-opacity:1;fill-rule:nonzero;stroke:none"
             id="path84"
             inkscape:connector-curvature="0" /></g><g
           id="g86"
           transform="translate(1362.6279,472.3135)"><path
             d="m 0,0 c 0,-10.813 -4.124,-19.303 -12.371,-25.47 -8.256,-6.168 -19.734,-9.256 -34.437,-9.256 -13.235,0 -24.02,2.791 -32.357,8.365 -8.337,5.582 -13.694,13.694 -16.053,24.336 l 24.074,3.124 c 1.297,-5.294 4.007,-9.472 8.113,-12.542 4.114,-3.07 9.75,-4.61 16.898,-4.61 7.437,0 12.946,1.189 16.521,3.547 3.575,2.368 5.366,6.06 5.366,11.074 0,3.719 -1.575,6.852 -4.735,9.418 -3.152,2.566 -7.744,4.574 -13.766,6.041 -12.119,2.926 -20.663,5.483 -25.65,7.644 -4.979,2.17 -8.968,4.609 -11.957,7.31 -2.98,2.71 -5.276,5.879 -6.878,9.507 -1.612,3.638 -2.414,7.707 -2.414,12.209 0,9.859 3.962,17.664 11.876,23.408 7.914,5.745 18.348,8.617 31.304,8.617 12.613,0 22.472,-2.494 29.567,-7.473 7.103,-4.988 11.695,-12.722 13.775,-23.201 l -24.165,-2.449 c -2.476,10.308 -9.039,15.467 -19.69,15.467 -5.969,0 -10.534,-1.116 -13.685,-3.34 -3.151,-2.224 -4.727,-5.42 -4.727,-9.588 0,-2.764 0.756,-5.06 2.279,-6.888 1.521,-1.837 3.591,-3.385 6.212,-4.646 2.62,-1.269 7.949,-2.944 16.007,-5.033 10.588,-2.592 18.727,-5.473 24.416,-8.661 5.691,-3.178 9.86,-7.022 12.506,-11.532 C -1.324,10.876 0,5.744 0,0"
             style="fill:#ffffff;fill-opacity:1;fill-rule:nonzero;stroke:none"
             id="path88"
             inkscape:connector-curvature="0" /></g><path
           d="M 757.407,639.55 H 557.565 V 439.708 h 199.842 z m -9,-190.842 H 566.565 V 630.55 h 181.842 z"
           style="fill:#ffffff;fill-opacity:1;fill-rule:nonzero;stroke:none"
           id="path90"
           inkscape:connector-curvature="0" /><g
           id="g92"
           transform="translate(586.5039,488.4805)"><path
             d="M 0,0 V 26.726 L 39.876,60.844 0,95.174 v 26.93 L 59.817,70.094 V 52.011 Z"
             style="fill:#ffffff;fill-opacity:1;fill-rule:nonzero;stroke:none"
             id="path94"
             inkscape:connector-curvature="0" /></g><path
           d="m 646.321,489.095 h 82.147 v -20.421 h -82.147 z"
           style="fill:#ffffff;fill-opacity:1;fill-rule:nonzero;stroke:none"
           id="path96"
           inkscape:connector-curvature="0" /></g></g></g></svg>